<svg width="199" height="115" viewBox="0 0 199 115" fill="none" xmlns="http://www.w3.org/2000/svg">
<g filter="url(#filter0_d_16157_114)">
<rect x="24" y="10" width="150.945" height="66.3636" rx="33.1818" fill="white" shape-rendering="crispEdges"/>
<g filter="url(#filter1_i_16157_114)">
<rect x="37.2727" y="23.2727" width="39.8182" height="39.8182" rx="19.9091" fill="#6142FF"/>
<path d="M65.1819 37.1819L54.1819 48.1819L49.1819 43.1819" stroke="white" stroke-width="2" stroke-linecap="round" stroke-linejoin="round"/>
</g>
<path d="M93.3579 50.312C92.4907 50.312 91.7103 50.1633 91.0165 49.866C90.3228 49.5563 89.7778 49.1227 89.3813 48.5653C88.9849 48.0078 88.7867 47.3574 88.7867 46.6142H91.0537C91.1033 47.1716 91.3201 47.63 91.7041 47.9892C92.1005 48.3485 92.6517 48.5281 93.3579 48.5281C94.0887 48.5281 94.6586 48.3547 95.0674 48.0078C95.4762 47.6486 95.6806 47.1902 95.6806 46.6328C95.6806 46.1992 95.5505 45.8461 95.2904 45.5736C95.0426 45.3011 94.7267 45.0905 94.3427 44.9418C93.9711 44.7932 93.4508 44.6321 92.7818 44.4587C91.9394 44.2357 91.2519 44.0127 90.7192 43.7897C90.1989 43.5544 89.753 43.1951 89.3813 42.712C89.0097 42.2289 88.8239 41.5847 88.8239 40.7795C88.8239 40.0362 89.0097 39.3858 89.3813 38.8284C89.753 38.2709 90.2733 37.8436 90.9422 37.5462C91.6112 37.2489 92.3854 37.1003 93.2649 37.1003C94.5161 37.1003 95.5381 37.4162 96.3309 38.048C97.1362 38.6673 97.5821 39.5221 97.6688 40.6122H95.3275C95.2904 40.1415 95.0674 39.7389 94.6586 39.4044C94.2498 39.07 93.7109 38.9027 93.042 38.9027C92.435 38.9027 91.9394 39.0576 91.5554 39.3673C91.1714 39.677 90.9794 40.1229 90.9794 40.7052C90.9794 41.1016 91.0971 41.4298 91.3324 41.69C91.5802 41.9378 91.8899 42.136 92.2615 42.2846C92.6332 42.4333 93.1411 42.5943 93.7852 42.7677C94.64 43.0031 95.3337 43.2385 95.8664 43.4738C96.4115 43.7092 96.8698 44.0747 97.2415 44.5702C97.6255 45.0533 97.8175 45.7037 97.8175 46.5213C97.8175 47.1778 97.6379 47.7972 97.2786 48.3794C96.9318 48.9617 96.4177 49.4324 95.7363 49.7917C95.0674 50.1385 94.2746 50.312 93.3579 50.312ZM109.701 44.8117C109.701 45.1958 109.676 45.5426 109.627 45.8523H101.804C101.866 46.6699 102.169 47.3265 102.714 47.822C103.259 48.3175 103.928 48.5653 104.721 48.5653C105.861 48.5653 106.666 48.0883 107.137 47.1345H109.422C109.112 48.0759 108.549 48.8502 107.731 49.4572C106.926 50.0518 105.923 50.3491 104.721 50.3491C103.742 50.3491 102.863 50.1323 102.082 49.6988C101.314 49.2528 100.707 48.6334 100.261 47.8406C99.8277 47.0354 99.6109 46.1063 99.6109 45.0533C99.6109 44.0003 99.8215 43.0774 100.243 42.2846C100.676 41.4794 101.277 40.86 102.045 40.4264C102.826 39.9929 103.718 39.7761 104.721 39.7761C105.687 39.7761 106.548 39.9867 107.304 40.4078C108.059 40.829 108.648 41.4237 109.069 42.1917C109.49 42.9474 109.701 43.8207 109.701 44.8117ZM107.49 44.1428C107.477 43.3624 107.199 42.7368 106.653 42.266C106.108 41.7953 105.433 41.5599 104.628 41.5599C103.897 41.5599 103.272 41.7953 102.751 42.266C102.231 42.7244 101.921 43.35 101.822 44.1428H107.49ZM114.257 41.6714V47.3389C114.257 47.7229 114.344 48.0016 114.517 48.175C114.703 48.3361 115.013 48.4166 115.446 48.4166H116.747V50.1819H115.074C114.121 50.1819 113.39 49.9589 112.882 49.5129C112.374 49.067 112.12 48.3423 112.12 47.3389V41.6714H110.912V39.9433H112.12V37.3976H114.257V39.9433H116.747V41.6714H114.257ZM121.171 41.6714V47.3389C121.171 47.7229 121.257 48.0016 121.431 48.175C121.617 48.3361 121.926 48.4166 122.36 48.4166H123.661V50.1819H121.988C121.034 50.1819 120.303 49.9589 119.796 49.5129C119.288 49.067 119.034 48.3423 119.034 47.3389V41.6714H117.826V39.9433H119.034V37.3976H121.171V39.9433H123.661V41.6714H121.171ZM127.731 36.4313V50.1819H125.613V36.4313H127.731ZM139.896 44.8117C139.896 45.1958 139.872 45.5426 139.822 45.8523H131.999C132.061 46.6699 132.364 47.3265 132.91 47.822C133.455 48.3175 134.124 48.5653 134.916 48.5653C136.056 48.5653 136.861 48.0883 137.332 47.1345H139.618C139.308 48.0759 138.744 48.8502 137.927 49.4572C137.121 50.0518 136.118 50.3491 134.916 50.3491C133.938 50.3491 133.058 50.1323 132.278 49.6988C131.51 49.2528 130.903 48.6334 130.457 47.8406C130.023 47.0354 129.806 46.1063 129.806 45.0533C129.806 44.0003 130.017 43.0774 130.438 42.2846C130.872 41.4794 131.473 40.86 132.241 40.4264C133.021 39.9929 133.913 39.7761 134.916 39.7761C135.883 39.7761 136.744 39.9867 137.499 40.4078C138.255 40.829 138.843 41.4237 139.265 42.1917C139.686 42.9474 139.896 43.8207 139.896 44.8117ZM137.685 44.1428C137.673 43.3624 137.394 42.7368 136.849 42.266C136.304 41.7953 135.629 41.5599 134.823 41.5599C134.093 41.5599 133.467 41.7953 132.947 42.266C132.426 42.7244 132.117 43.35 132.018 44.1428H137.685ZM141.275 45.0161C141.275 43.9879 141.485 43.0774 141.907 42.2846C142.34 41.4918 142.922 40.8786 143.653 40.445C144.397 39.999 145.22 39.7761 146.125 39.7761C146.794 39.7761 147.45 39.9247 148.094 40.222C148.751 40.507 149.271 40.891 149.655 41.3741V36.4313H151.792V50.1819H149.655V48.6396C149.308 49.1351 148.825 49.5439 148.206 49.866C147.599 50.1881 146.899 50.3491 146.106 50.3491C145.214 50.3491 144.397 50.1261 143.653 49.6802C142.922 49.2218 142.34 48.59 141.907 47.7848C141.485 46.9672 141.275 46.0443 141.275 45.0161ZM149.655 45.0533C149.655 44.3472 149.507 43.734 149.209 43.2137C148.924 42.6934 148.547 42.297 148.076 42.0245C147.605 41.7519 147.097 41.6157 146.552 41.6157C146.007 41.6157 145.499 41.7519 145.028 42.0245C144.558 42.2846 144.174 42.6748 143.876 43.1951C143.591 43.703 143.449 44.31 143.449 45.0161C143.449 45.7222 143.591 46.3416 143.876 46.8743C144.174 47.407 144.558 47.8158 145.028 48.1007C145.512 48.3733 146.019 48.5095 146.552 48.5095C147.097 48.5095 147.605 48.3733 148.076 48.1007C148.547 47.8282 148.924 47.4318 149.209 46.9115C149.507 46.3788 149.655 45.7594 149.655 45.0533Z" fill="black"/>
<a href="https://www.google.com/search?sca_esv=893b81126e5e43ba&#38;sxsrf=AE3TifO9tbXJuh0ctyyFKNyM7epi5RXgaw:1755926196208&#38;q=Stripe+Settled&#38;spell=1&#38;sa=X&#38;ved=2ahUKEwi13rTplqCPAxXLna8BHUeDK0oQkeECKAB6BAgNEAE">
<rect fill="black" fill-opacity="0" y="-0.936364" width="65.4768" height="27.8727"/>
</a>
</g>
<defs>
<filter id="filter0_d_16157_114" x="0" y="0" width="198.946" height="114.364" filterUnits="userSpaceOnUse" color-interpolation-filters="sRGB">
<feFlood flood-opacity="0" result="BackgroundImageFix"/>
<feColorMatrix in="SourceAlpha" type="matrix" values="0 0 0 0 0 0 0 0 0 0 0 0 0 0 0 0 0 0 127 0" result="hardAlpha"/>
<feOffset dy="14"/>
<feGaussianBlur stdDeviation="12"/>
<feComposite in2="hardAlpha" operator="out"/>
<feColorMatrix type="matrix" values="0 0 0 0 0 0 0 0 0 0 0 0 0 0 0 0 0 0 0.06 0"/>
<feBlend mode="normal" in2="BackgroundImageFix" result="effect1_dropShadow_16157_114"/>
<feBlend mode="normal" in="SourceGraphic" in2="effect1_dropShadow_16157_114" result="shape"/>
</filter>
<filter id="filter1_i_16157_114" x="37.2727" y="23.2727" width="39.8181" height="43.8181" filterUnits="userSpaceOnUse" color-interpolation-filters="sRGB">
<feFlood flood-opacity="0" result="BackgroundImageFix"/>
<feBlend mode="normal" in="SourceGraphic" in2="BackgroundImageFix" result="shape"/>
<feColorMatrix in="SourceAlpha" type="matrix" values="0 0 0 0 0 0 0 0 0 0 0 0 0 0 0 0 0 0 127 0" result="hardAlpha"/>
<feOffset dy="4"/>
<feGaussianBlur stdDeviation="12"/>
<feComposite in2="hardAlpha" operator="arithmetic" k2="-1" k3="1"/>
<feColorMatrix type="matrix" values="0 0 0 0 1 0 0 0 0 1 0 0 0 0 1 0 0 0 0.55 0"/>
<feBlend mode="normal" in2="shape" result="effect1_innerShadow_16157_114"/>
</filter>
</defs>
</svg>
