<svg width="370" height="365" viewBox="0 0 370 365" fill="none" xmlns="http://www.w3.org/2000/svg">
<path opacity="0.45" d="M116.956 361.683C124.969 305.751 169.192 261.509 225.099 253.492C234.742 252.106 243.395 259.558 243.395 269.297V364.015C243.395 372.839 236.25 379.987 227.43 379.987H132.769C123.019 379.987 115.57 371.331 116.956 361.683Z" fill="white" fill-opacity="0.08"/>
<path opacity="0.6" fill-rule="evenodd" clip-rule="evenodd" d="M53.2954 126.663C18.3344 126.663 -10.0001 155.01 -10.0001 189.987C-10.0001 224.963 18.3344 253.31 53.2954 253.31C88.2563 253.31 116.591 224.963 116.591 189.987C116.606 155.025 88.2563 126.663 53.2954 126.663ZM53.2954 141.736C26.6519 141.736 5.0659 163.331 5.0659 189.987C5.0659 216.642 26.6519 238.238 53.2954 238.238C79.9388 238.238 101.525 216.642 101.525 189.987C101.525 163.347 79.9388 141.736 53.2954 141.736Z" fill="white" fill-opacity="0.08"/>
<path opacity="0.6" fill-rule="evenodd" clip-rule="evenodd" d="M53.2958 158.333C35.823 158.333 21.6405 172.506 21.6405 190.002C21.6405 207.498 35.8077 221.672 53.2958 221.672C70.7839 221.672 84.9512 207.498 84.9512 190.002C84.9512 172.506 70.7839 158.333 53.2958 158.333ZM53.2958 173.406C44.1405 173.406 36.7217 180.828 36.7217 189.987C36.7217 199.146 44.1405 206.568 53.2958 206.568C62.4512 206.568 69.8699 199.146 69.8699 189.987C69.8699 180.828 62.4512 173.406 53.2958 173.406Z" fill="white" fill-opacity="0.08"/>
<path opacity="0.45" fill-rule="evenodd" clip-rule="evenodd" d="M116.439 108.358C108.426 52.4256 64.2033 8.18297 8.29615 0.166565C-1.34668 -1.22031 -9.99934 6.2322 -9.99934 15.9708L-9.99934 110.674C-9.99934 119.498 -2.85484 126.646 5.96538 126.646L100.627 126.646C110.376 126.661 117.825 118.005 116.439 108.358ZM76.6795 74.1736C76.6795 53.5839 59.9989 36.8958 39.4184 36.8958C18.8378 36.8958 2.15699 53.5839 2.15699 74.1736C2.15699 94.7632 18.8378 111.451 39.4184 111.451C59.9989 111.451 76.6795 94.7632 76.6795 74.1736Z" fill="white" fill-opacity="0.08"/>
<path opacity="0.3" fill-rule="evenodd" clip-rule="evenodd" d="M-9.83292 271.628C-1.82008 327.56 42.4029 371.803 98.31 379.819C107.953 381.206 116.605 373.753 116.605 364.015L116.605 269.312C116.605 260.487 109.461 253.34 100.641 253.34H5.9795C-3.7852 253.324 -11.2192 261.981 -9.83292 271.628ZM29.9268 305.812C29.9268 326.402 46.6074 343.09 67.188 343.09C87.7685 343.09 104.449 326.402 104.449 305.812C104.449 285.222 87.7685 268.534 67.188 268.534C46.6074 268.534 29.9268 285.222 29.9268 305.812Z" fill="white" fill-opacity="0.08"/>
<path opacity="0.6" d="M116.956 144.965C124.969 200.897 169.192 245.139 225.099 253.156C234.742 254.543 243.395 247.09 243.395 237.336C243.395 229.366 237.515 222.66 229.639 221.517C208.693 218.499 189.925 208.7 175.651 194.42C161.377 180.139 151.582 161.363 148.566 140.408C147.438 132.513 140.721 126.646 132.753 126.646C123.019 126.661 115.57 135.318 116.956 144.965Z" fill="white" fill-opacity="0.08"/>
<path opacity="0.6" d="M230.37 183.004C208.906 178.066 192.012 161.165 187.077 139.691C185.538 133.016 190.687 126.661 197.527 126.661H232.686C238.596 126.661 243.38 131.446 243.38 137.36V172.534C243.395 179.392 237.043 184.544 230.37 183.004Z" fill="white" fill-opacity="0.08"/>
<path opacity="0.6" d="M288.659 289.623C280.124 293.16 276.071 302.949 279.607 311.487C283.142 320.026 292.927 324.081 301.462 320.544C309.996 317.007 314.049 307.218 310.514 298.679C306.979 290.141 297.194 286.086 288.659 289.623Z" fill="white" fill-opacity="0.08"/>
<path opacity="0.6" d="M261.691 379.834C317.598 371.817 361.821 327.575 369.834 271.643C371.22 261.996 363.771 253.339 354.036 253.339H259.375C250.555 253.339 243.41 260.487 243.41 269.311V364.014C243.395 373.768 252.048 381.221 261.691 379.834ZM263.168 305.065C263.168 287.416 277.473 273.121 295.098 273.121C312.723 273.121 327.027 287.432 327.027 305.065C327.027 322.698 312.723 337.008 295.098 337.008C277.473 337.008 263.168 322.713 263.168 305.065Z" fill="white" fill-opacity="0.08"/>
</svg>
