<svg width="100" height="55" viewBox="0 0 100 55" fill="none" xmlns="http://www.w3.org/2000/svg">
<path d="M36.0899 3.32661C36.9528 3.32661 37.6524 2.58193 37.6524 1.66333C37.6524 0.744729 36.9528 5.34058e-05 36.0899 5.34058e-05C35.2269 5.34058e-05 34.5273 0.744729 34.5273 1.66333C34.5273 2.58193 35.2269 3.32661 36.0899 3.32661Z" fill="white"/>
<path d="M36.0899 5.80051C36.9536 5.80051 37.6524 6.54507 37.6524 7.46538V24.114C37.6524 25.0343 36.9536 25.7789 36.0899 25.7789C35.2261 25.7789 34.5273 25.0343 34.5273 24.114V7.46538C34.5273 6.54507 35.2261 5.80051 36.0899 5.80051Z" fill="white"/>
<path d="M40.7269 7.46538C40.7269 6.54507 41.4257 5.80051 42.2894 5.80051H53.7817C54.3728 5.80051 54.9112 6.15448 55.177 6.71594C55.4428 7.27741 55.3878 7.95117 55.0372 8.45648L45.3893 22.3417H54.0818C54.9456 22.3417 55.6444 23.0863 55.6444 24.0066C55.6444 24.9269 54.9456 25.6715 54.0818 25.6715H42.2871C41.696 25.6715 41.1576 25.3175 40.8918 24.756C40.6261 24.1946 40.6811 23.5208 41.0316 23.0155L50.6795 9.13024H42.2894C41.4257 9.13024 40.7269 8.38325 40.7269 7.46538Z" fill="white"/>
<path fill-rule="evenodd" clip-rule="evenodd" d="M61.7968 15.8433C61.7968 12.2548 64.5278 9.34498 67.8958 9.34498C71.2637 9.34498 73.9948 12.2548 73.9948 15.8433C73.9948 19.4318 71.2637 22.3417 67.8958 22.3417C64.5278 22.3417 61.7968 19.4318 61.7968 15.8433ZM73.9925 24.0041C73.9925 24.9244 74.6913 25.6689 75.555 25.6689C76.4188 25.6689 77.1176 24.9244 77.1176 24.0041V15.8409C77.1176 10.4142 72.989 6.01282 67.8935 6.01282C62.8003 6.01282 58.6694 10.4118 58.6694 15.8409C58.6694 21.2675 62.798 25.6689 67.8935 25.6689C70.2327 25.6689 72.3658 24.7413 73.9925 23.2131V24.0041Z" fill="white"/>
<path d="M0 14.6078C0 9.50578 3.88119 5.37048 8.66963 5.37048C11.5794 5.37048 14.1546 6.89864 15.7263 9.2397C17.298 6.8962 19.8732 5.37048 22.783 5.37048C27.5714 5.37048 31.4526 9.50578 31.4526 14.6078V24.0599C31.4526 25.0095 30.7309 25.7785 29.8396 25.7785C28.9484 25.7785 28.2267 25.0095 28.2267 24.0599V14.6078C28.2267 11.405 25.7889 8.80762 22.783 8.80762C19.777 8.80762 17.3392 11.405 17.3392 14.6078V24.0599C17.3392 25.0095 16.6175 25.7785 15.7263 25.7785C14.835 25.7785 14.1133 25.0095 14.1133 24.0599V14.6078C14.1133 11.405 11.6756 8.80762 8.66963 8.80762C5.66368 8.80762 3.22592 11.405 3.22592 14.6078V24.0599C3.22592 25.0095 2.50421 25.7785 1.61296 25.7785C0.721713 25.7785 0 25.0095 0 24.0599V14.6078Z" fill="white"/>
<path d="M83.4673 15.8967C83.4673 11.9811 86.4458 8.80762 90.1208 8.80762C93.7957 8.80762 96.7742 11.9811 96.7742 15.8967V24.0599C96.7742 25.0095 97.4959 25.7785 98.3871 25.7785C99.2784 25.7785 100 25.0095 100 24.0599V15.8967C100 10.0843 95.5782 5.37048 90.1208 5.37048C84.6633 5.37048 80.2415 10.0819 80.2415 15.8967V24.0599C80.2415 25.0095 80.9631 25.7785 81.8544 25.7785C82.7456 25.7785 83.4673 25.0095 83.4673 24.0599V15.8967Z" fill="white"/>
<path d="M42.2393 32.5399C43.1023 32.5399 43.8019 31.7953 43.8019 30.8767C43.8019 29.9581 43.1023 29.2134 42.2393 29.2134C41.3763 29.2134 40.6768 29.9581 40.6768 30.8767C40.6768 31.7953 41.3763 32.5399 42.2393 32.5399Z" fill="white"/>
<path fill-rule="evenodd" clip-rule="evenodd" d="M93.6998 39.9546H72.9331C71.1804 39.9546 69.7576 38.4387 69.7576 36.5712C69.7576 34.7037 71.1804 33.1878 72.9331 33.1878H93.6998C95.4525 33.1878 96.8753 34.7037 96.8753 36.5712C96.8753 38.4387 95.4548 39.9546 93.6998 39.9546ZM72.9331 29.858C69.4529 29.858 66.6325 32.8631 66.6325 36.5712C66.6325 37.804 66.9441 38.9611 67.4894 39.9546H62.875C63.3424 39.0465 63.6059 38.0017 63.6059 36.8934C63.6059 34.2546 62.08 31.728 59.6743 30.9492C59.6629 30.9444 59.6491 30.9419 59.6377 30.937L56.7142 30.0778C55.8825 29.8336 55.0211 30.3536 54.7919 31.2397C54.5628 32.1259 55.0508 33.0437 55.8825 33.2879L58.7831 34.1398C59.695 34.445 60.4808 35.5288 60.4808 36.891C60.4808 38.5827 59.1955 39.9522 57.6077 39.9522H43.8472V36.6762C43.8472 35.7559 43.1485 35.0113 42.2847 35.0113C41.4209 35.0113 40.7222 35.7559 40.7222 36.6762V52.8951C40.7222 53.8155 41.4209 54.56 42.2847 54.56C43.1485 54.56 43.8472 53.8155 43.8472 52.8951V43.2844H93.6953C97.1755 43.2844 99.9958 40.2793 99.9958 36.5712C99.9958 32.8631 97.1755 29.858 93.6953 29.858H72.9331Z" fill="white"/>
<path d="M37.6524 30.9316V52.897C37.6524 53.8174 36.9536 54.5619 36.0899 54.5619C35.2261 54.5619 34.5273 53.8174 34.5273 52.897V30.9316C34.5273 30.0113 35.2261 29.2667 36.0899 29.2667C36.9536 29.2667 37.6524 30.0137 37.6524 30.9316Z" fill="white"/>
<path d="M51.0601 49.0811C51.9231 49.0811 52.6227 48.3365 52.6227 47.4179C52.6227 46.4993 51.9231 45.7546 51.0601 45.7546C50.1972 45.7546 49.4976 46.4993 49.4976 47.4179C49.4976 48.3365 50.1972 49.0811 51.0601 49.0811Z" fill="white"/>
<path d="M55.6973 49.0811C56.5603 49.0811 57.2599 48.3365 57.2599 47.4179C57.2599 46.4993 56.5603 45.7546 55.6973 45.7546C54.8344 45.7546 54.1348 46.4993 54.1348 47.4179C54.1348 48.3365 54.8344 49.0811 55.6973 49.0811Z" fill="white"/>
<path d="M7.72633 33.2363C8.55801 32.9922 9.04602 32.0743 8.81691 31.1881C8.58779 30.302 7.72633 29.782 6.89465 30.0262L3.97117 30.8854C3.95743 30.8903 3.94596 30.8928 3.93451 30.8977C1.52654 31.6739 0.00292969 34.203 0.00292969 36.8418C0.00292969 40.3717 2.68814 43.2303 5.99881 43.2328H6.00111L25.4528 43.2865H25.4573C28.7703 43.2865 31.4555 40.4254 31.4555 36.8955C31.4555 34.2567 29.9296 31.7301 27.5239 30.9514C27.5125 30.9465 27.4987 30.944 27.4873 30.9391L24.5638 30.0799C23.7321 29.8358 22.8707 30.3557 22.6415 31.2418C22.4124 32.128 22.9004 33.0459 23.7321 33.29L26.6327 34.1419C27.5446 34.4471 28.3304 35.5309 28.3304 36.8931C28.3304 38.5824 27.0451 39.9543 25.4596 39.9543H25.4573L6.00569 39.9006H6.00111C4.41336 39.9006 3.12803 38.5311 3.12803 36.8394C3.12803 35.4772 3.91389 34.3909 4.82576 34.0882L7.72633 33.2363Z" fill="white"/>
<path d="M15.7271 32.5399C16.5901 32.5399 17.2896 31.7953 17.2896 30.8767C17.2896 29.9581 16.5901 29.2134 15.7271 29.2134C14.8641 29.2134 14.1646 29.9581 14.1646 30.8767C14.1646 31.7953 14.8641 32.5399 15.7271 32.5399Z" fill="white"/>
</svg>
