<svg width="784" height="788" viewBox="0 0 784 788" fill="none" xmlns="http://www.w3.org/2000/svg">
<g opacity="0.2">
<path fill-rule="evenodd" clip-rule="evenodd" d="M293.513 131.805C293.728 76.8203 338.248 32.4193 392.952 32.6326C447.656 32.8459 491.829 77.5926 491.614 132.577C491.4 187.562 446.88 231.963 392.176 231.749C337.472 231.536 293.299 186.789 293.513 131.805ZM262.56 131.684C262.842 59.5169 321.274 1.24065 393.073 1.52057C464.872 1.80049 522.849 60.5306 522.568 132.698C522.286 204.865 463.853 263.141 392.054 262.861C320.255 262.582 262.279 203.851 262.56 131.684Z" fill="white" fill-opacity="0.15"/>
<path fill-rule="evenodd" clip-rule="evenodd" d="M358.516 132.062C358.589 113.162 373.893 97.8988 392.697 97.9721C411.502 98.0454 426.686 113.427 426.612 132.328C426.539 151.229 411.235 166.491 392.431 166.418C373.626 166.345 358.442 150.963 358.516 132.062ZM327.563 131.942C327.703 95.8582 356.919 66.7203 392.819 66.8602C428.718 67.0002 457.706 96.3651 457.566 132.449C457.425 168.532 428.209 197.67 392.309 197.53C356.41 197.39 327.422 168.025 327.563 131.942Z" fill="white" fill-opacity="0.15"/>
<path fill-rule="evenodd" clip-rule="evenodd" d="M546.058 263.462C532.803 263.41 521.985 252.588 523.232 239.392C535.047 114.279 634.555 15.0018 759.101 4.04426C772.305 2.88259 783.042 13.7862 782.991 27.0409L782.159 240.382C782.107 253.637 771.32 264.34 758.066 264.288L546.058 263.462ZM682.183 80.4289C724.066 80.5922 757.885 114.851 757.721 156.949C757.557 199.047 723.471 233.041 681.589 232.878C639.706 232.715 605.886 198.455 606.05 156.358C606.214 114.26 640.3 80.2656 682.183 80.4289Z" fill="white" fill-opacity="0.15"/>
<path d="M498.061 263.277C511.316 263.329 522.134 274.151 520.887 287.347C509.072 412.46 409.564 511.737 285.018 522.695C271.814 523.856 261.077 512.953 261.128 499.698L261.196 482.363C261.248 469.108 272.087 458.56 285.248 456.992C373.88 446.431 444.38 376.085 455.524 287.067C457.17 273.915 467.804 263.159 481.059 263.211L498.061 263.277Z" fill="white" fill-opacity="0.15"/>
<path d="M261.693 356.582C261.641 369.837 272.456 380.881 285.446 378.246C331.356 368.934 367.619 332.737 377.196 286.649C379.893 273.671 368.937 262.774 355.682 262.722L286.06 262.451C272.805 262.399 262.018 273.102 261.966 286.357L261.693 356.582Z" fill="white" fill-opacity="0.15"/>
<path d="M757.049 525.63C770.304 525.682 781.206 514.944 780.063 501.738C769.223 376.538 670.493 276.487 546.036 264.559C532.841 263.294 522.019 274.114 521.967 287.369L521.135 500.71C521.084 513.965 531.787 524.752 545.042 524.803L757.049 525.63Z" fill="white" fill-opacity="0.15"/>
<path d="M191.458 106.523C191.531 87.622 176.347 72.2403 157.543 72.167C138.738 72.0936 123.434 87.3565 123.361 106.257C123.287 125.158 138.471 140.54 157.276 140.613C176.08 140.687 191.384 125.424 191.458 106.523Z" fill="white" fill-opacity="0.15"/>
<path fill-rule="evenodd" clip-rule="evenodd" d="M262.139 238.358C262.087 251.613 251.264 262.433 238.07 261.168C113.613 249.24 14.883 149.189 4.04324 23.9887C2.89992 10.7833 13.8018 0.0455842 27.0565 0.09726L239.064 0.923807C252.319 0.975482 263.022 11.7625 262.97 25.0172L262.139 238.358ZM222.411 106.644C222.552 70.5599 193.563 41.1949 157.664 41.0549C121.764 40.915 92.548 70.0531 92.4074 106.137C92.2667 142.22 121.255 171.585 157.154 171.725C193.054 171.865 222.27 142.727 222.411 106.644Z" fill="white" fill-opacity="0.15"/>
<path fill-rule="evenodd" clip-rule="evenodd" d="M780.121 763.068C780.069 776.323 769.247 787.142 756.052 785.878C631.595 773.949 532.865 673.899 522.025 548.698C520.882 535.493 531.784 524.755 545.039 524.807L757.046 525.633C770.301 525.685 781.004 536.472 780.953 549.727L780.121 763.068ZM598.028 626.129C598.192 584.031 632.278 550.037 674.16 550.2C716.043 550.364 749.863 584.623 749.699 626.72C749.535 668.818 715.449 702.812 673.566 702.649C631.683 702.486 597.864 668.227 598.028 626.129Z" fill="white" fill-opacity="0.15"/>
</g>
</svg>
