<svg width="1312" height="1798" viewBox="0 0 1312 1798" fill="none" xmlns="http://www.w3.org/2000/svg">
<g opacity="0.7" filter="url(#filter0_f_16057_4397)">
<g clip-path="url(#paint0_angular_16057_4397_clip_path)" data-figma-skip-parse="true"><g transform="matrix(-0.108532 -0.517455 -0.510625 0.0745999 610.827 1024.2)"><foreignObject x="-1601.81" y="-1601.81" width="3203.62" height="3203.62"><div xmlns="http://www.w3.org/1999/xhtml" style="background:conic-gradient(from 90deg,rgba(47, 20, 85, 1) 0deg,rgba(88, 14, 188, 1) 125.438deg,rgba(125, 176, 197, 1) 157.819deg,rgba(199, 177, 189, 1) 220.828deg,rgba(110, 54, 49, 1) 262.942deg,rgba(30, 23, 40, 1) 305.056deg,rgba(47, 20, 85, 1) 360deg);height:100%;width:100%;opacity:0.5"></div></foreignObject></g></g><path d="M763.073 1443.9C661.82 1646.8 415.407 1557.07 300.222 1508.49C165.012 1370.66 256.098 1090.83 264.638 984.98C275.312 852.662 452.664 678.734 538.059 573.982C623.453 469.23 380.999 110.369 480.626 264.741C580.252 419.112 784.651 446.644 933.562 731.37C974.085 808.852 1129.25 949.545 1072.32 1056.66C1022.51 1150.39 944.603 1139.63 861.516 1056.66C740.608 935.925 878.062 1213.46 763.073 1443.9Z" data-figma-gradient-fill="{&#34;type&#34;:&#34;GRADIENT_ANGULAR&#34;,&#34;stops&#34;:[{&#34;color&#34;:{&#34;r&#34;:0.34509804844856262,&#34;g&#34;:0.054901961237192154,&#34;b&#34;:0.73725491762161255,&#34;a&#34;:1.0},&#34;position&#34;:0.34843903779983521},{&#34;color&#34;:{&#34;r&#34;:0.49019607901573181,&#34;g&#34;:0.69019609689712524,&#34;b&#34;:0.77254903316497803,&#34;a&#34;:1.0},&#34;position&#34;:0.43838635087013245},{&#34;color&#34;:{&#34;r&#34;:0.78039216995239258,&#34;g&#34;:0.69411766529083252,&#34;b&#34;:0.74117648601531982,&#34;a&#34;:1.0},&#34;position&#34;:0.61341160535812378},{&#34;color&#34;:{&#34;r&#34;:0.43137255311012268,&#34;g&#34;:0.21176470816135406,&#34;b&#34;:0.19215686619281769,&#34;a&#34;:1.0},&#34;position&#34;:0.73039400577545166},{&#34;color&#34;:{&#34;r&#34;:0.11764705926179886,&#34;g&#34;:0.090196080505847931,&#34;b&#34;:0.15686275064945221,&#34;a&#34;:1.0},&#34;position&#34;:0.84737646579742432}],&#34;stopsVar&#34;:[{&#34;color&#34;:{&#34;r&#34;:0.34509804844856262,&#34;g&#34;:0.054901961237192154,&#34;b&#34;:0.73725491762161255,&#34;a&#34;:1.0},&#34;position&#34;:0.34843903779983521},{&#34;color&#34;:{&#34;r&#34;:0.49019607901573181,&#34;g&#34;:0.69019609689712524,&#34;b&#34;:0.77254903316497803,&#34;a&#34;:1.0},&#34;position&#34;:0.43838635087013245},{&#34;color&#34;:{&#34;r&#34;:0.78039216995239258,&#34;g&#34;:0.69411766529083252,&#34;b&#34;:0.74117648601531982,&#34;a&#34;:1.0},&#34;position&#34;:0.61341160535812378},{&#34;color&#34;:{&#34;r&#34;:0.43137255311012268,&#34;g&#34;:0.21176470816135406,&#34;b&#34;:0.19215686619281769,&#34;a&#34;:1.0},&#34;position&#34;:0.73039400577545166},{&#34;color&#34;:{&#34;r&#34;:0.11764705926179886,&#34;g&#34;:0.090196080505847931,&#34;b&#34;:0.15686275064945221,&#34;a&#34;:1.0},&#34;position&#34;:0.84737646579742432}],&#34;transform&#34;:{&#34;m00&#34;:-217.06332397460938,&#34;m01&#34;:-1021.2500610351562,&#34;m02&#34;:1229.9837646484375,&#34;m10&#34;:-1034.910156250,&#34;m11&#34;:149.19978332519531,&#34;m12&#34;:1467.060058593750},&#34;opacity&#34;:0.50,&#34;blendMode&#34;:&#34;NORMAL&#34;,&#34;visible&#34;:true}"/>
</g>
<defs>
<filter id="filter0_f_16057_4397" x="0.000183105" y="0.000183105" width="1311.46" height="1797.46" filterUnits="userSpaceOnUse" color-interpolation-filters="sRGB">
<feFlood flood-opacity="0" result="BackgroundImageFix"/>
<feBlend mode="normal" in="SourceGraphic" in2="BackgroundImageFix" result="shape"/>
<feGaussianBlur stdDeviation="113.365" result="effect1_foregroundBlur_16057_4397"/>
</filter>
<clipPath id="paint0_angular_16057_4397_clip_path"><path d="M763.073 1443.9C661.82 1646.8 415.407 1557.07 300.222 1508.49C165.012 1370.66 256.098 1090.83 264.638 984.98C275.312 852.662 452.664 678.734 538.059 573.982C623.453 469.23 380.999 110.369 480.626 264.741C580.252 419.112 784.651 446.644 933.562 731.37C974.085 808.852 1129.25 949.545 1072.32 1056.66C1022.51 1150.39 944.603 1139.63 861.516 1056.66C740.608 935.925 878.062 1213.46 763.073 1443.9Z"/></clipPath></defs>
</svg>
