<svg width="199" height="167" viewBox="0 0 199 167" fill="none" xmlns="http://www.w3.org/2000/svg">
<mask id="mask0_16057_5460" style="mask-type:alpha" maskUnits="userSpaceOnUse" x="0" y="0" width="1128" height="167">
<rect x="0.379545" y="0.379545" width="40.9909" height="40.9909" stroke="#130F26" stroke-width="0.759091"/>
<rect x="42.1295" y="0.379545" width="40.9909" height="40.9909" stroke="#130F26" stroke-width="0.759091"/>
<rect x="83.8795" y="0.379545" width="40.9909" height="40.9909" stroke="#130F26" stroke-width="0.759091"/>
<rect x="125.63" y="0.379545" width="40.9909" height="40.9909" stroke="#130F26" stroke-width="0.759091"/>
<rect x="167.38" y="0.379545" width="40.9909" height="40.9909" stroke="#130F26" stroke-width="0.759091"/>
<rect x="0.379545" y="42.1298" width="40.9909" height="40.9909" stroke="#130F26" stroke-width="0.759091"/>
<rect x="42.1295" y="42.13" width="40.9909" height="40.9909" stroke="#130F26" stroke-width="0.759091"/>
<rect x="83.8795" y="42.1298" width="40.9909" height="40.9909" stroke="#130F26" stroke-width="0.759091"/>
<rect x="125.63" y="42.13" width="40.9909" height="40.9909" stroke="#130F26" stroke-width="0.759091"/>
<rect x="167.38" y="42.13" width="40.9909" height="40.9909" stroke="#130F26" stroke-width="0.759091"/>
<rect x="0.379545" y="83.8798" width="40.9909" height="40.9909" stroke="#130F26" stroke-width="0.759091"/>
<rect x="42.1295" y="83.88" width="40.9909" height="40.9909" stroke="#130F26" stroke-width="0.759091"/>
<rect x="83.8795" y="83.8798" width="40.9909" height="40.9909" stroke="#130F26" stroke-width="0.759091"/>
<rect x="125.63" y="83.88" width="40.9909" height="40.9909" stroke="#130F26" stroke-width="0.759091"/>
<rect x="167.38" y="83.88" width="40.9909" height="40.9909" stroke="#130F26" stroke-width="0.759091"/>
<rect x="0.379545" y="125.63" width="40.9909" height="40.9909" stroke="#130F26" stroke-width="0.759091"/>
<rect x="42.1295" y="125.63" width="40.9909" height="40.9909" stroke="#130F26" stroke-width="0.759091"/>
<rect x="83.8795" y="125.63" width="40.9909" height="40.9909" stroke="#130F26" stroke-width="0.759091"/>
<rect x="125.63" y="125.63" width="40.9909" height="40.9909" stroke="#130F26" stroke-width="0.759091"/>
<rect x="167.38" y="125.63" width="40.9909" height="40.9909" stroke="#130F26" stroke-width="0.759091"/>
</mask>
<g mask="url(#mask0_16057_5460)">
<g opacity="0.25" filter="url(#filter0_f_16057_5460)">
<ellipse cx="26.9123" cy="69.1674" rx="26.9123" ry="69.1674" transform="matrix(0.27366 0.961827 -0.240173 0.97073 230.681 -54.3372)" fill="#FF9659"/>
</g>
<g opacity="0.03" filter="url(#filter1_f_16057_5460)">
<ellipse cx="202.811" cy="190.761" rx="202.811" ry="190.761" transform="matrix(0.27366 0.961827 -0.240173 0.97073 41.5312 -212.551)" fill="#FF9659"/>
</g>
<path opacity="0.28" d="M32.8519 167C32.8519 167.21 33.0218 167.38 33.2314 167.38C33.4411 167.38 33.611 167.21 33.611 167H33.2314H32.8519ZM33.2314 83.5H32.8519V167H33.2314H33.611V83.5H33.2314Z" fill="url(#paint0_linear_16057_5460)"/>
</g>
<rect opacity="0.6" x="167" y="41.7502" width="41.75" height="41.75" fill="url(#paint1_linear_16057_5460)" fill-opacity="0.23"/>
<defs>
<filter id="filter0_f_16057_5460" x="13.4841" y="-223.061" width="415.898" height="523.503" filterUnits="userSpaceOnUse" color-interpolation-filters="sRGB">
<feFlood flood-opacity="0" result="BackgroundImageFix"/>
<feBlend mode="normal" in="SourceGraphic" in2="BackgroundImageFix" result="shape"/>
<feGaussianBlur stdDeviation="94.8864" result="effect1_foregroundBlur_16057_5460"/>
</filter>
<filter id="filter1_f_16057_5460" x="-210.527" y="-291.044" width="523.487" height="917.478" filterUnits="userSpaceOnUse" color-interpolation-filters="sRGB">
<feFlood flood-opacity="0" result="BackgroundImageFix"/>
<feBlend mode="normal" in="SourceGraphic" in2="BackgroundImageFix" result="shape"/>
<feGaussianBlur stdDeviation="94.8864" result="effect1_foregroundBlur_16057_5460"/>
</filter>
<linearGradient id="paint0_linear_16057_5460" x1="32.2314" y1="167" x2="32.2314" y2="83.5" gradientUnits="userSpaceOnUse">
<stop stop-color="#FFA66B" stop-opacity="0"/>
<stop offset="0.5" stop-color="#FFB06B"/>
<stop offset="1" stop-color="#FF956B" stop-opacity="0"/>
</linearGradient>
<linearGradient id="paint1_linear_16057_5460" x1="187.875" y1="41.7502" x2="149.92" y2="100.2" gradientUnits="userSpaceOnUse">
<stop stop-color="#B27F56"/>
<stop offset="1" stop-color="#4C3025" stop-opacity="0"/>
</linearGradient>
</defs>
</svg>
