<svg width="70" height="106" viewBox="0 0 70 106" fill="none" xmlns="http://www.w3.org/2000/svg">
<foreignObject x="-24.0625" y="-28.875" width="117.75" height="134.594"><div xmlns="http://www.w3.org/1999/xhtml" style="backdrop-filter:blur(14.44px);clip-path:url(#bgblur_1_11_1534_clip_path);height:100%;width:100%"></div></foreignObject><g filter="url(#filter0_d_11_1534)" data-figma-bg-blur-radius="28.875">
<g clip-path="url(#clip0_11_1534)">
<rect x="4.8125" width="60" height="60" rx="30" fill="#282828" fill-opacity="0.2" shape-rendering="crispEdges"/>
<rect x="12.8125" y="8" width="44" height="44" rx="22" fill="url(#paint0_linear_11_1534)" fill-opacity="0.1"/>
<path fill-rule="evenodd" clip-rule="evenodd" d="M38.8959 18.0415C34.5467 18.0415 31.0209 21.5673 31.0209 25.9165C31.0209 26.8534 31.1849 27.7535 31.4862 28.5889L23.1105 36.9645C22.9464 37.1285 22.8542 37.3511 22.8542 37.5832V41.0832C22.8542 41.5664 23.246 41.9582 23.7292 41.9582H27.2292C27.7125 41.9582 28.1042 41.5664 28.1042 41.0832V39.0415H30.1459C30.6292 39.0415 31.0209 38.6497 31.0209 38.1665V36.1248H33.0626C33.2946 36.1248 33.5172 36.0327 33.6813 35.8685L36.2235 33.3262C37.0589 33.6275 37.959 33.7915 38.8959 33.7915C43.2451 33.7915 46.7709 30.2657 46.7709 25.9165C46.7709 21.5673 43.2451 18.0415 38.8959 18.0415ZM41.8479 24.2019C42.1896 23.8602 42.1896 23.3062 41.8479 22.9645C41.5062 22.6227 40.9523 22.6227 40.6106 22.9645L39.4439 24.1311C39.1022 24.4728 39.1022 25.0268 39.4439 25.3686C39.7856 25.7103 40.3395 25.7103 40.6813 25.3686L41.8479 24.2019Z" fill="url(#paint1_linear_11_1534)"/>
<ellipse cx="9.01832" cy="14.3752" rx="9.01832" ry="14.3752" transform="matrix(-1.03824 -0.269848 0.651327 -0.720692 -70.5137 75.8574)" fill="white"/>
<g filter="url(#filter2_f_11_1534)">
<ellipse cx="13.1279" cy="33.7731" rx="13.1279" ry="33.7731" transform="matrix(0.220158 -0.808431 1.15108 1.00887e-05 -64.752 74.7871)" fill="#CFD0DA"/>
</g>
<g filter="url(#filter3_f_11_1534)">
<ellipse cx="8.44431" cy="24.1812" rx="8.44431" ry="24.1812" transform="matrix(0.483711 -0.772132 1.10248 0.155868 -51.5312 61.709)" fill="#FFA04E"/>
</g>
</g>
<rect x="5.11328" y="0.300781" width="59.3984" height="59.3984" rx="29.6992" stroke="white" stroke-opacity="0.1" stroke-width="0.601562" shape-rendering="crispEdges"/>
</g>
<defs>
<filter id="filter0_d_11_1534" x="-24.0625" y="-28.875" width="117.75" height="134.594" filterUnits="userSpaceOnUse" color-interpolation-filters="sRGB">
<feFlood flood-opacity="0" result="BackgroundImageFix"/>
<feColorMatrix in="SourceAlpha" type="matrix" values="0 0 0 0 0 0 0 0 0 0 0 0 0 0 0 0 0 0 127 0" result="hardAlpha"/>
<feMorphology radius="24.0625" operator="erode" in="SourceAlpha" result="effect1_dropShadow_11_1534"/>
<feOffset dy="40.9062"/>
<feGaussianBlur stdDeviation="14.4375"/>
<feComposite in2="hardAlpha" operator="out"/>
<feColorMatrix type="matrix" values="0 0 0 0 0 0 0 0 0 0 0 0 0 0 0 0 0 0 0.35 0"/>
<feBlend mode="normal" in2="BackgroundImageFix" result="effect1_dropShadow_11_1534"/>
<feBlend mode="normal" in="SourceGraphic" in2="effect1_dropShadow_11_1534" result="shape"/>
</filter>
<clipPath id="bgblur_1_11_1534_clip_path" transform="translate(24.0625 28.875)"><rect x="4.8125" width="60" height="60" rx="30"/>
</clipPath><filter id="filter2_f_11_1534" x="-94.6324" y="20.8999" width="143.293" height="86.5494" filterUnits="userSpaceOnUse" color-interpolation-filters="sRGB">
<feFlood flood-opacity="0" result="BackgroundImageFix"/>
<feBlend mode="normal" in="SourceGraphic" in2="BackgroundImageFix" result="shape"/>
<feGaussianBlur stdDeviation="16.3308" result="effect1_foregroundBlur_11_1534"/>
</filter>
<filter id="filter3_f_11_1534" x="-80.4231" y="18.7641" width="119.272" height="80.3878" filterUnits="userSpaceOnUse" color-interpolation-filters="sRGB">
<feFlood flood-opacity="0" result="BackgroundImageFix"/>
<feBlend mode="normal" in="SourceGraphic" in2="BackgroundImageFix" result="shape"/>
<feGaussianBlur stdDeviation="16.3308" result="effect1_foregroundBlur_11_1534"/>
</filter>
<linearGradient id="paint0_linear_11_1534" x1="34.8125" y1="8" x2="34.8125" y2="52" gradientUnits="userSpaceOnUse">
<stop stop-color="white" stop-opacity="0.2"/>
<stop offset="1" stop-color="white"/>
</linearGradient>
<linearGradient id="paint1_linear_11_1534" x1="27.5969" y1="50.9076" x2="47.214" y2="47.7168" gradientUnits="userSpaceOnUse">
<stop stop-color="#D39C90"/>
<stop offset="0.502151" stop-color="white"/>
<stop offset="1" stop-color="#D39B8E"/>
</linearGradient>
<clipPath id="clip0_11_1534">
<rect x="4.8125" width="60" height="60" rx="30" fill="white"/>
</clipPath>
</defs>
</svg>
