<svg width="632" height="627" viewBox="0 0 632 627" fill="none" xmlns="http://www.w3.org/2000/svg">
<g opacity="0.5">
<path fill-rule="evenodd" clip-rule="evenodd" d="M378.55 568.503C378.55 616.347 339.963 655.132 292.363 655.132C244.764 655.132 206.177 616.347 206.177 568.503C206.177 520.66 244.764 481.875 292.363 481.875C339.963 481.875 378.55 520.66 378.55 568.503ZM405.483 568.503C405.483 631.298 354.838 682.203 292.363 682.203C229.889 682.203 179.243 631.298 179.243 568.503C179.243 505.708 229.889 454.803 292.363 454.803C354.838 454.803 405.483 505.708 405.483 568.503Z" fill="url(#paint0_linear_16057_5928)" fill-opacity="0.15"/>
<path fill-rule="evenodd" clip-rule="evenodd" d="M321.992 568.502C321.992 584.948 308.728 598.28 292.365 598.28C276.003 598.28 262.739 584.948 262.739 568.502C262.739 552.056 276.003 538.723 292.365 538.723C308.728 538.723 321.992 552.056 321.992 568.502ZM348.925 568.502C348.925 599.899 323.602 625.352 292.365 625.352C261.128 625.352 235.806 599.899 235.806 568.502C235.806 537.105 261.128 511.652 292.365 511.652C323.602 511.652 348.925 537.105 348.925 568.502Z" fill="url(#paint1_linear_16057_5928)" fill-opacity="0.15"/>
<path fill-rule="evenodd" clip-rule="evenodd" d="M155.243 454.803C168.498 454.803 179.376 465.583 178.002 478.766C166.915 585.176 82.8158 669.743 -23.035 680.943C-36.2163 682.337 -46.9969 671.458 -46.9969 658.203L-46.9969 478.803C-46.9969 465.548 -36.2517 454.803 -22.9969 454.803L155.243 454.803ZM40.5365 614.525C4.09302 614.525 -25.4502 584.83 -25.4502 548.2C-25.4502 511.569 4.09303 481.875 40.5365 481.875C76.9799 481.875 106.523 511.569 106.523 548.2C106.523 584.83 76.9799 614.525 40.5365 614.525Z" fill="url(#paint2_linear_16057_5928)" fill-opacity="0.15"/>
<path d="M203.239 454.803C189.985 454.803 179.107 444.023 180.481 430.84C191.568 324.43 275.667 239.863 381.518 228.663C394.699 227.268 405.479 238.148 405.479 251.403L405.479 260.253C405.479 273.508 394.673 284.074 381.549 285.936C306.947 296.52 247.936 355.869 237.457 430.87C235.623 443.997 225.054 454.803 211.799 454.803L203.239 454.803Z" fill="url(#paint3_linear_16057_5928)" fill-opacity="0.15"/>
<path d="M405.476 375.931C405.476 362.676 394.579 351.64 381.688 354.724C344.231 363.686 314.755 393.342 305.881 431.007C302.842 443.909 313.875 454.802 327.129 454.802L381.476 454.802C394.73 454.802 405.476 444.057 405.476 430.802L405.476 375.931Z" fill="url(#paint4_linear_16057_5928)" fill-opacity="0.15"/>
<path d="M-22.9998 227.406C-36.2547 227.406 -47.1323 238.185 -45.7587 251.368C-34.6714 357.779 49.4275 442.345 155.278 453.545C168.46 454.94 179.24 444.06 179.24 430.805L179.24 251.406C179.24 238.151 168.495 227.406 155.24 227.406L-22.9998 227.406Z" fill="url(#paint5_linear_16057_5928)" fill-opacity="0.15"/>
<path d="M467.44 590.155C467.44 606.601 480.704 619.934 497.067 619.934C513.429 619.934 526.693 606.601 526.693 590.155C526.693 573.709 513.429 560.376 497.067 560.376C480.704 560.376 467.44 573.709 467.44 590.155Z" fill="url(#paint6_linear_16057_5928)" fill-opacity="0.15"/>
<path fill-rule="evenodd" clip-rule="evenodd" d="M405.492 478.8C405.492 465.545 416.273 454.666 429.454 456.06C535.305 467.26 619.404 551.827 630.491 658.237C631.865 671.421 620.987 682.2 607.732 682.2L429.492 682.2C416.237 682.2 405.492 671.455 405.492 658.2L405.492 478.8ZM440.507 590.155C440.507 621.552 465.83 647.005 497.067 647.005C528.304 647.005 553.627 621.552 553.627 590.155C553.627 558.758 528.304 533.305 497.067 533.305C465.83 533.305 440.507 558.758 440.507 590.155Z" fill="url(#paint7_linear_16057_5928)" fill-opacity="0.15"/>
<path fill-rule="evenodd" clip-rule="evenodd" d="M-46.9951 23.9999C-46.9951 10.7451 -36.2145 -0.134482 -23.0332 1.26024C82.8176 12.4604 166.917 97.0268 178.004 203.437C179.377 216.62 168.5 227.4 155.245 227.4L-22.9951 227.4C-36.25 227.4 -46.9951 216.655 -46.9951 203.4V23.9999ZM111.912 139.418C111.912 176.048 82.3683 205.743 45.9249 205.743C9.48147 205.743 -20.0618 176.048 -20.0618 139.418C-20.0618 102.787 9.48147 73.0927 45.9249 73.0927C82.3683 73.0927 111.912 102.787 111.912 139.418Z" fill="url(#paint8_linear_16057_5928)" fill-opacity="0.15"/>
</g>
<defs>
<linearGradient id="paint0_linear_16057_5928" x1="192.243" y1="462.637" x2="396.083" y2="659.386" gradientUnits="userSpaceOnUse">
<stop stop-color="white"/>
<stop offset="1" stop-color="#999999"/>
</linearGradient>
<linearGradient id="paint1_linear_16057_5928" x1="242.306" y1="515.569" x2="344.225" y2="613.943" gradientUnits="userSpaceOnUse">
<stop stop-color="white"/>
<stop offset="1" stop-color="#999999"/>
</linearGradient>
<linearGradient id="paint2_linear_16057_5928" x1="171.45" y1="467.87" x2="-26.3698" y2="670.733" gradientUnits="userSpaceOnUse">
<stop stop-color="white"/>
<stop offset="1" stop-color="#999999"/>
</linearGradient>
<linearGradient id="paint3_linear_16057_5928" x1="397.686" y1="240.469" x2="199.867" y2="443.332" gradientUnits="userSpaceOnUse">
<stop stop-color="white"/>
<stop offset="1" stop-color="#999999"/>
</linearGradient>
<linearGradient id="paint4_linear_16057_5928" x1="401.95" y1="357.842" x2="312.461" y2="449.613" gradientUnits="userSpaceOnUse">
<stop stop-color="white"/>
<stop offset="1" stop-color="#999999"/>
</linearGradient>
<linearGradient id="paint5_linear_16057_5928" x1="171.447" y1="240.472" x2="-26.3728" y2="443.335" gradientUnits="userSpaceOnUse">
<stop stop-color="white"/>
<stop offset="1" stop-color="#999999"/>
</linearGradient>
<linearGradient id="paint6_linear_16057_5928" x1="418.492" y1="462.633" x2="622.332" y2="659.383" gradientUnits="userSpaceOnUse">
<stop stop-color="white"/>
<stop offset="1" stop-color="#999999"/>
</linearGradient>
<linearGradient id="paint7_linear_16057_5928" x1="418.492" y1="462.633" x2="622.332" y2="659.383" gradientUnits="userSpaceOnUse">
<stop stop-color="white"/>
<stop offset="1" stop-color="#999999"/>
</linearGradient>
<linearGradient id="paint8_linear_16057_5928" x1="-33.9953" y1="7.8332" x2="169.844" y2="204.583" gradientUnits="userSpaceOnUse">
<stop stop-color="white"/>
<stop offset="1" stop-color="#999999"/>
</linearGradient>
</defs>
</svg>
