<svg width="286" height="45" viewBox="0 0 286 45" fill="none" xmlns="http://www.w3.org/2000/svg">
<path d="M33.6416 11.7495H35.2583L39.8665 7.14129L40.0925 5.18409C31.5158 -2.38694 18.4264 -1.56906 10.8553 7.00763C8.75175 9.3881 7.22736 12.2237 6.39355 15.2915C6.90593 15.0815 7.47559 15.0465 8.01024 15.1961L17.2266 13.6748C17.2266 13.6748 17.6944 12.8983 17.9395 12.9461C22.0385 8.44291 28.938 7.91781 33.6735 11.7495H33.6416Z" fill="white"/>
<path d="M46.4321 15.2917C45.3723 11.39 43.1987 7.88293 40.1754 5.20331L33.7086 11.67C36.4392 13.9009 37.9954 17.2648 37.9286 20.7909V21.9398C41.1078 21.9398 43.6856 24.5176 43.6856 27.6968C43.6856 30.8761 41.1078 33.4539 37.9286 33.4539H26.4145L25.2656 34.6186V41.5245L26.4145 42.6734H37.9286C46.1966 42.737 52.9529 36.0857 53.0165 27.8177C53.0547 22.7959 50.582 18.0986 46.4321 15.2917Z" fill="white"/>
<path d="M14.8848 42.6H26.3989V33.3837H14.8848C14.0638 33.3837 13.2554 33.2055 12.5075 32.8649L10.8909 33.3678L6.25085 37.9759L5.84668 39.5926C8.44674 41.5594 11.6228 42.6159 14.8848 42.6Z" fill="white"/>
<path d="M14.8845 12.7045C6.61337 12.7522 -0.0474817 19.4958 0.000254992 27.767C0.028897 32.3847 2.18341 36.7319 5.8464 39.5452L12.5232 32.8684C9.62715 31.5604 8.33826 28.1489 9.64624 25.2528C10.9542 22.3568 14.3658 21.0679 17.2618 22.3759C18.538 22.9519 19.5596 23.9767 20.1388 25.2528L26.8155 18.5761C23.9768 14.859 19.5596 12.6854 14.8845 12.7045Z" fill="white"/>
<path d="M83.6691 36.1661C79.6624 36.217 75.8117 34.6353 72.9984 31.7839C70.0928 29.0533 68.4698 25.228 68.5207 21.2404C68.473 17.2528 70.096 13.4307 72.9984 10.697C75.7989 7.81689 79.6529 6.20339 83.6691 6.23521C87.4944 6.1843 91.1829 7.6705 93.9039 10.3597L91.0269 13.2875C89.057 11.3812 86.4092 10.3374 83.6691 10.3756C80.7954 10.3406 78.0362 11.5149 76.0695 13.6089C74.0263 15.6362 72.8997 18.4112 72.9475 21.2882C72.922 24.1333 74.0486 26.867 76.0695 28.8719C80.2321 33.0218 86.9439 33.1014 91.2052 29.0502C92.4749 27.6626 93.2515 25.8932 93.4201 24.0219H83.7169V19.8847H97.4459C97.5796 20.7185 97.6337 21.5619 97.6082 22.4084C97.7801 25.9377 96.5007 29.3843 94.0662 31.9494C91.3579 34.7658 87.5772 36.2998 83.6691 36.1661ZM115.589 33.4165C111.761 37.0858 105.72 37.0858 101.892 33.4165C100.036 31.6184 99.0244 29.1265 99.0944 26.5456C99.0244 23.9646 100.04 21.4728 101.892 19.6747C105.723 16.0149 111.757 16.0149 115.589 19.6747C117.441 21.4728 118.456 23.9646 118.386 26.5456C118.453 29.1297 117.432 31.6216 115.573 33.4165H115.589ZM104.915 30.7178C106.891 32.8309 110.208 32.9391 112.321 30.9596C112.403 30.8801 112.486 30.8005 112.563 30.7178C113.641 29.6007 114.224 28.0986 114.179 26.5456C114.227 24.9894 113.645 23.4777 112.563 22.3575C110.529 20.238 107.162 20.1648 105.039 22.1984C104.985 22.2493 104.931 22.3034 104.88 22.3575C103.798 23.4777 103.216 24.9894 103.263 26.5456C103.222 28.0986 103.811 29.6039 104.896 30.7178H104.915ZM136.641 33.4165C132.812 37.0858 126.772 37.0858 122.944 33.4165C121.088 31.6184 120.076 29.1265 120.146 26.5456C120.076 23.9646 121.091 21.4728 122.944 19.6747C126.772 16.0053 132.812 16.0053 136.641 19.6747C138.493 21.4728 139.508 23.9646 139.438 26.5456C139.511 29.1265 138.496 31.6184 136.641 33.4165ZM125.97 30.7178C127.946 32.8309 131.263 32.9391 133.376 30.9596C133.458 30.8801 133.541 30.8005 133.618 30.7178C134.696 29.6007 135.279 28.0986 135.234 26.5456C135.282 24.9894 134.7 23.4777 133.618 22.3575C131.584 20.238 128.217 20.1648 126.097 22.1984C126.043 22.2493 125.989 22.3034 125.938 22.3575C124.856 23.4777 124.274 24.9894 124.322 26.5456C124.28 28.0986 124.869 29.6039 125.954 30.7178H125.97ZM150.481 44.8001C148.543 44.8605 146.643 44.2559 145.097 43.0847C143.724 42.0525 142.643 40.6819 141.959 39.1067L145.644 37.5696C146.045 38.5116 146.672 39.339 147.471 39.9787C148.324 40.6661 149.396 41.0289 150.494 40.997C151.901 41.083 153.276 40.5515 154.262 39.5427C155.236 38.3683 155.716 36.8599 155.605 35.3387V33.9479H155.459C154.208 35.431 152.334 36.2393 150.399 36.1311C147.945 36.1375 145.6 35.1191 143.932 33.3178C142.124 31.5325 141.125 29.0852 141.166 26.5424C141.122 23.9869 142.121 21.5237 143.932 19.7192C145.596 17.9116 147.942 16.8837 150.399 16.89C151.427 16.8869 152.445 17.116 153.374 17.552C154.179 17.9021 154.895 18.4272 155.478 19.0891H155.624V17.552H159.634V34.7722C159.847 37.525 158.918 40.246 157.063 42.2923C155.296 43.9822 152.925 44.886 150.481 44.8001ZM150.774 32.3822C152.171 32.414 153.511 31.8189 154.428 30.7655C155.424 29.623 155.952 28.1432 155.898 26.6251C155.958 25.0816 155.433 23.5763 154.428 22.4052C153.511 21.3486 152.171 20.7567 150.774 20.7885C149.339 20.7599 147.961 21.3486 146.99 22.4052C145.921 23.535 145.339 25.0403 145.374 26.5933C145.342 28.1336 145.921 29.623 146.99 30.7337C147.954 31.7998 149.333 32.4013 150.774 32.3822ZM166.766 7.32043V35.5837H162.546V7.32043H166.766ZM178.344 36.1661C175.788 36.2329 173.322 35.2305 171.536 33.4006C169.726 31.5866 168.736 29.1074 168.803 26.5456C168.707 23.9773 169.659 21.4791 171.438 19.6238C173.118 17.8543 175.467 16.8741 177.904 16.9219C179.015 16.9091 180.113 17.1255 181.138 17.552C182.061 17.9243 182.901 18.4749 183.611 19.1687C184.222 19.7574 184.763 20.413 185.227 21.1259C185.603 21.7273 185.921 22.3607 186.182 23.0162L186.618 24.1174L173.685 29.4384C174.487 31.2779 176.336 32.4363 178.34 32.3503C180.279 32.3567 182.077 31.3415 183.079 29.6835L186.312 31.8666C185.488 33.0485 184.431 34.05 183.206 34.8104C181.755 35.7269 180.062 36.1979 178.344 36.1661ZM172.943 26.2528L181.545 22.6789C181.281 22.0488 180.807 21.53 180.202 21.2086C179.528 20.8267 178.764 20.6326 177.987 20.6421C176.673 20.6771 175.422 21.2277 174.512 22.1793C173.408 23.2358 172.832 24.7284 172.943 26.2528Z" fill="white"/>
<path d="M208.727 36.166C201.369 36.2933 195.303 30.4313 195.176 23.0735C195.173 22.8952 195.173 22.7138 195.179 22.5356C195.007 15.1778 200.834 9.07707 208.189 8.90522C208.367 8.90203 208.549 8.90203 208.727 8.90203C212.406 8.78747 215.938 10.3596 218.315 13.1697L215.986 15.4324C214.239 13.2333 211.546 12.0017 208.743 12.1163C206.054 12.0558 203.453 13.0965 201.547 14.9932C199.565 16.9886 198.505 19.7192 198.619 22.5293C198.502 25.3394 199.565 28.0699 201.547 30.0653C203.453 31.9652 206.054 33.0027 208.743 32.9422C211.874 32.9772 214.85 31.5833 216.826 29.1583L219.156 31.4878C217.937 32.9454 216.406 34.1102 214.678 34.8994C212.813 35.765 210.779 36.1979 208.727 36.166Z" fill="white"/>
<path d="M225.412 35.5839H222.064V9.46875H225.412V35.5839Z" fill="white"/>
<path d="M230.88 19.8652C234.53 16.2404 240.424 16.2404 244.074 19.8652C245.805 21.6951 246.738 24.1392 246.662 26.6565C246.738 29.1739 245.805 31.618 244.074 33.4479C240.424 37.0727 234.53 37.0727 230.88 33.4479C229.149 31.618 228.216 29.1739 228.292 26.6565C228.216 24.1392 229.145 21.6951 230.88 19.8652ZM233.368 31.3475C235.51 33.6102 239.081 33.7088 241.347 31.5671C241.423 31.497 241.496 31.4207 241.566 31.3475C242.747 30.0809 243.371 28.391 243.298 26.6597C243.374 24.9285 242.75 23.2386 241.566 21.972C239.425 19.7093 235.854 19.6106 233.588 21.7524C233.512 21.8224 233.438 21.8988 233.368 21.972C232.188 23.2386 231.564 24.9285 231.637 26.6597C231.57 28.3878 232.2 30.0713 233.384 31.3316L233.368 31.3475Z" fill="white"/>
<path d="M265.206 35.5835H261.972V33.1107H261.877C261.301 34.0495 260.486 34.8197 259.515 35.3416C258.51 35.924 257.364 36.2327 256.199 36.2295C254.283 36.36 252.415 35.6089 251.123 34.1928C249.898 32.6429 249.284 30.6984 249.392 28.7285V17.7332H252.74V28.1143C252.74 31.4463 254.21 33.1107 257.154 33.1107C258.481 33.1521 259.745 32.5506 260.55 31.494C261.419 30.3961 261.88 29.0308 261.861 27.6306V17.7332H265.209V35.5835H265.206Z" fill="white"/>
<path d="M276.573 36.1663C274.276 36.1726 272.089 35.1765 270.59 33.4325C268.913 31.5804 268.016 29.1553 268.083 26.6571C268.016 24.1589 268.913 21.7339 270.59 19.8817C272.089 18.1409 274.276 17.1416 276.573 17.148C277.846 17.1289 279.103 17.428 280.227 18.02C281.217 18.5164 282.054 19.2707 282.652 20.2031H282.798L282.652 17.7304V9.46875H286V35.5839H282.766V33.1111H282.62C282.022 34.0436 281.185 34.7978 280.195 35.2943C279.081 35.8798 277.837 36.1822 276.573 36.1663ZM277.124 33.1111C278.655 33.1334 280.122 32.4969 281.15 31.364C282.286 30.0687 282.868 28.3788 282.766 26.6571C282.868 24.9386 282.286 23.2455 281.15 21.9503C279.119 19.7162 275.663 19.5539 273.429 21.5875C273.302 21.7021 273.181 21.8262 273.066 21.9503C271.927 23.236 271.345 24.9227 271.45 26.638C271.345 28.3534 271.927 30.0401 273.066 31.3258C274.097 32.4842 275.577 33.1334 277.124 33.1111Z" fill="white"/>
</svg>
